<?xml version="1.0" encoding="UTF-8"?><svg id="a" xmlns="http://www.w3.org/2000/svg" width="666.67" height="666.67" viewBox="0 0 666.67 666.67"><path d="M175,12.93C218.29,3.31,270.81,0,333.33,0s115.04,3.31,158.33,12.93c43.67,9.71,79.96,26.27,107.88,54.19,27.92,27.92,44.49,64.21,54.19,107.88,9.62,43.29,12.93,95.81,12.93,158.33s-3.31,115.04-12.93,158.33c-9.71,43.67-26.27,79.96-54.19,107.88-27.92,27.92-64.21,44.49-107.88,54.19-43.29,9.62-95.81,12.93-158.33,12.93s-115.04-3.31-158.33-12.93c-43.67-9.71-79.96-26.27-107.88-54.19-27.92-27.92-44.49-64.21-54.19-107.88C3.31,448.37,0,395.86,0,333.33s3.31-115.04,12.93-158.33c9.71-43.67,26.27-79.96,54.19-107.88,27.92-27.92,64.21-44.49,107.88-54.19ZM456.9,243.1c13.02,13.02,13.02,34.12,0,47.14l-122.76,122.76c-18.86,18.86-49.43,18.86-68.29,0l34.14-34.14-34.14,34.14-56.09-56.09c-13.02-13.02-13.02-34.12,0-47.14,13.02-13.02,34.12-13.02,47.14,0l43.1,43.1,109.76-109.76c13.02-13.02,34.12-13.02,47.14,0Z" style="fill:#323232; fill-rule:evenodd; stroke-width:0px;"/></svg>