<?xml version="1.0" encoding="UTF-8"?><svg id="a" xmlns="http://www.w3.org/2000/svg" width="666.66" height="661.92" viewBox="0 0 666.66 661.92"><path d="M166.66,200c-18.41,0-33.33,14.92-33.33,33.33s14.92,33.33,33.33,33.33h333.33c18.41,0,33.33-14.92,33.33-33.33s-14.92-33.33-33.33-33.33H166.66ZM166.66,300c-18.41,0-33.33,14.92-33.33,33.33s14.92,33.33,33.33,33.33h200c18.41,0,33.33-14.92,33.33-33.33s-14.92-33.33-33.33-33.33h-200ZM164.47,0h337.72C531.74,0,557.2,0,577.59,2.74c21.85,2.94,42.8,9.56,59.78,26.55,16.99,16.99,23.61,37.93,26.55,59.78,2.74,20.39,2.74,45.85,2.74,75.4v204.39c0,29.55,0,55.01-2.74,75.4-2.94,21.85-9.56,42.8-26.55,59.78-16.99,16.99-37.93,23.61-59.78,26.55-20.39,2.74-45.85,2.74-75.4,2.74h-67.05l-69.01,110.41c-15.15,24.24-50.45,24.24-65.6,0l-69.01-110.41h-67.05c-29.55,0-55.01,0-75.4-2.74-21.85-2.94-42.8-9.56-59.78-26.55-16.99-16.99-23.61-37.93-26.55-59.78-2.74-20.39-2.74-45.85-2.74-75.4v-204.39c0-29.55,0-55.01,2.74-75.4,2.94-21.85,9.56-42.8,26.55-59.78C46.28,12.3,67.22,5.68,89.07,2.74,109.46,0,134.92,0,164.47,0h0Z" style="fill:#323232; fill-rule:evenodd; stroke-width:0px;"/></svg>