<?xml version="1.0" encoding="UTF-8"?><svg id="a" xmlns="http://www.w3.org/2000/svg" width="235.19mm" height="235.19mm" viewBox="0 0 666.68 666.67"><path d="M443.31,0c21.14-.03,39.9-.06,57.44,6.72,17.54,6.77,31.42,19.4,47.05,33.63,22.59,20.56,45.21,41.09,67.86,61.57,17.9,16.19,33.79,30.56,42.43,50.08s8.61,40.95,8.57,65.08c-.08,50.6,0,101.19,0,151.79,0,29.55,0,55.01-2.74,75.4-2.94,21.85-9.56,42.8-26.55,59.78-16.99,16.99-37.93,23.61-59.78,26.55-20.39,2.74-45.85,2.74-75.4,2.74h-137.72c-29.55,0-55.01,0-75.4-2.74-21.85-2.94-42.8-9.56-59.78-26.55-16.99-16.99-23.61-37.93-26.55-59.78-2.74-20.39-2.74-45.85-2.74-75.4v-202.19c0-30.48-.07-56.7,2.74-77.59,2.94-21.85,9.56-42.8,26.55-59.78,16.99-16.99,37.93-23.61,59.78-26.55C309.46,0,334.92,0,364.47,0h2.19c25.55,0,51.1.03,76.65,0Z" style="fill:#000; fill-rule:evenodd; stroke-width:0px;"/><path d="M466.14,566.67h-103.43c-28.13,0-55.46,0-78.08-3.03-25.53-3.43-54.69-11.79-78.91-36.02-24.22-24.22-32.59-53.39-36.02-78.91-3.04-22.62-3.04-49.95-3.04-78.08v-207.92c0-9.95,0-19.8.13-29.37-25.58-.01-51.32-.83-76.77,2.31-20.02,2.47-39.41,8.02-55.89,22.44-3.33,2.92-6.47,6.05-9.38,9.38-14.42,16.47-19.97,35.86-22.44,55.89C0,242.13,0,265.39,0,292.37v209.83c0,29.55,0,55.01,2.74,75.4,2.94,21.85,9.56,42.79,26.55,59.78,16.99,16.99,37.93,23.61,59.78,26.55,20.39,2.74,45.85,2.74,75.4,2.74h165.66c16.57,0,30.87,0,42.67-.91,12.44-.96,24.84-3.08,36.88-8.82,20.71-9.87,37.39-26.55,47.26-47.26,6.41-13.45,8.47-28.28,9.2-43.02Z" style="fill:#000; stroke-width:0px;"/></svg>