<?xml version="1.0" encoding="UTF-8"?><svg id="Layer_1" xmlns="http://www.w3.org/2000/svg" width="235.19mm" height="235.19mm" viewBox="0 0 666.68 666.67"><path d="M666.67,388.26v-155.72c0-41.77-2.19-77.61-8.85-107.56-6.74-30.33-18.49-56.62-39-77.12s-46.8-32.26-77.13-39C511.75,2.19,475.9,0,434.13,0h-201.6c-41.77,0-77.61,2.19-107.56,8.85-30.33,6.74-56.62,18.49-77.12,39S15.59,94.64,8.85,124.97C2.19,154.92,0,190.76,0,232.53v201.6c0,41.77,2.19,77.61,8.85,107.56,6.74,30.33,18.49,56.62,39,77.13s46.8,32.26,77.12,39c29.95,6.66,65.79,8.85,107.56,8.85h201.6c41.77,0,77.61-2.19,107.56-8.85,30.33-6.74,56.62-18.49,77.13-39s32.26-46.8,39-77.13c6.66-29.95,8.85-65.79,8.85-107.56v-44.33c.01-.52.01-1.03,0-1.55ZM73.93,139.43c-5.06,22.78-7.26,52.85-7.26,93.1v70.67c24-23.07,46.33-41.95,67.96-55.72,26.21-16.68,53.11-26.96,82.11-26.96s55.9,10.28,82.11,26.96c25.88,16.47,52.78,40.26,82.31,69.8l54.18,54.18c32.78-27.02,64.92-45.68,99.51-49.99,22.79-2.84,44.28.77,65.15,9.19v-98.13c0-40.25-2.2-70.32-7.26-93.1-4.98-22.4-12.27-35.66-21.06-44.45-8.79-8.79-22.05-16.08-44.45-21.06-22.78-5.06-52.85-7.26-93.1-7.26h-201.6c-40.25,0-70.32,2.2-93.1,7.26-22.4,4.98-35.66,12.27-44.45,21.06-8.79,8.79-16.08,22.05-21.06,44.45Z" fill-rule="evenodd"/><path d="M400,200c0-36.82,29.85-66.67,66.67-66.67s66.67,29.85,66.67,66.67-29.85,66.67-66.67,66.67-66.67-29.85-66.67-66.67Z" fill-rule="evenodd"/></svg>