<?xml version="1.0" encoding="UTF-8"?><svg id="uuid-a9d6ad39-7a77-4cce-97c1-6809be7359fc" xmlns="http://www.w3.org/2000/svg" viewBox="0 0 245.69 82.15"><g id="uuid-ec0ce4e7-83d1-4cd3-af65-f55751dfe0f1"><path d="M79.53,2.84v16.75c0,.78-.63,1.41-1.41,1.41h-27c-.78,0-1.42-.63-1.42-1.41V2.84c0-1.57,1.27-2.84,2.84-2.84h24.16c1.57,0,2.83,1.27,2.83,2.84Z" fill="#279200" stroke-width="0"/><path d="M123.03,39.23v14.92c0,13.31-9.29,24.46-21.75,27.29-2.01.47-4.1.71-6.25.71h-17.33c-2.15,0-4.24-.24-6.25-.71-12.45-2.83-21.75-13.98-21.75-27.29v-26.06c0-.78.64-1.42,1.42-1.42h27c.78,0,1.41.64,1.41,1.42v19.97c0,2.35,1.91,4.25,4.26,4.25h5.16c2.35,0,4.25-1.9,4.25-4.25v-8.83c0-.78.64-1.41,1.42-1.41h27c.78,0,1.41.63,1.41,1.41Z" fill="#f46d00" stroke-width="0"/><path d="M42,55.15v24.16c0,1.57-1.26,2.84-2.83,2.84h-11.17c-15.46,0-28-12.54-28-28V2.84C0,1.27,1.27,0,2.84,0h24.16c1.57,0,2.84,1.27,2.84,2.84v45.22c0,2.35,1.9,4.25,4.25,4.25h5.08c1.57,0,2.83,1.27,2.83,2.84Z" fill="#f46d00" stroke-width="0"/><path d="M176.03,2.84v24.16c0,1.57-1.27,2.84-2.83,2.84h-5.08c-2.35,0-4.25,1.9-4.25,4.25v16.8c0,.79-.64,1.42-1.42,1.42h-27c-.78,0-1.42-.63-1.42-1.42v-22.89c0-15.46,12.54-28,28-28h11.17c1.56,0,2.83,1.27,2.83,2.84Z" fill="#f46d00" stroke-width="0"/><path d="M123.03,2.84v27.89c0,.78-.63,1.42-1.41,1.42h-27c-.78,0-1.42-.64-1.42-1.42V2.84c0-1.57,1.27-2.84,2.84-2.84h24.16c1.57,0,2.83,1.27,2.83,2.84Z" fill="#2184ed" stroke-width="0"/><path d="M242.71,18.44c-5.07-10.89-16.12-18.44-28.93-18.44h-28.44c-1.56,0-2.83,1.27-2.83,2.84v76.47c0,1.57,1.27,2.84,2.83,2.84h24.17c1.56,0,2.83-1.27,2.83-2.84v-15.5h1.44c8.82,0,16.79-3.57,22.57-9.34,1.85-1.85,3.48-3.94,4.83-6.2,2.87-4.78,4.51-10.38,4.51-16.36,0-4.81-1.07-9.38-2.98-13.47ZM212.34,39.21h-3.42c-.78,0-1.41-.64-1.41-1.42v-11.76c0-.78.63-1.42,1.41-1.42h3.42c1.28,0,2.48.33,3.52.9,2.25,1.25,3.78,3.65,3.78,6.4,0,2.01-.82,3.84-2.14,5.16-.48.48-1.04.9-1.64,1.24-1.04.57-2.24.9-3.52.9Z" fill="#f46d00" stroke-width="0"/><path d="M163.87,59.4v19.91c0,1.57-1.27,2.84-2.84,2.84h-24.16c-1.57,0-2.84-1.27-2.84-2.84v-19.91c0-.78.64-1.42,1.42-1.42h27c.78,0,1.42.64,1.42,1.42Z" fill="#a24aeb" stroke-width="0"/></g></svg>