<?xml version="1.0" encoding="UTF-8"?><svg id="uuid-c09f2d74-e96c-4c51-9907-e22cfeb2ef06" xmlns="http://www.w3.org/2000/svg" viewBox="0 0 239.87 239.87"><g id="uuid-8b39e71c-0b59-4e0d-b7d9-8e190e18da91"><path d="M239.87,119.93c0,1.14-.02,2.28-.05,3.41-.03.88-.06,1.77-.1,2.64-.1,2.01-.25,4-.45,5.98-.05.5-.1,1-.16,1.48-.11.99-.23,1.96-.37,2.95-.06.49-.14.98-.21,1.47-.05.31-.09.63-.14.94-.26,1.63-.55,3.25-.88,4.87-.08.41-.17.81-.25,1.22-1.39,6.55-3.31,12.91-5.72,19.03-.16.39-.3.78-.46,1.17-.13.29-.25.6-.38.9-.34.83-.69,1.64-1.06,2.46-.39.88-.78,1.74-1.19,2.6-.34.74-.7,1.47-1.06,2.19-.55,1.12-1.13,2.23-1.72,3.34-.32.61-.65,1.21-.99,1.81-.1.18-.2.35-.3.53-.38.66-.76,1.32-1.14,1.97-.06.11-.14.23-.21.35-.35.6-.71,1.2-1.09,1.79-.06.11-.13.22-.2.33-.18.29-.36.59-.55.88-.35.56-.72,1.12-1.09,1.69-.5.76-1.01,1.52-1.53,2.27-.02.03-.04.06-.06.07-.41.6-.83,1.19-1.25,1.77-.12.18-.24.34-.37.51-.22.31-.45.62-.68.92-2.32,3.12-4.8,6.14-7.41,9.02h0l-43.05-41.85c8.84-10.44,14.15-23.95,14.15-38.69,0-.82-.02-1.63-.05-2.44l59.67-6.63c.03.31.05.63.07.94.03.41.06.82.07,1.23.02.29.03.58.05.88.02.47.05.93.06,1.4.06,1.54.09,3.09.09,4.63Z" fill="#2184ed" stroke-width="0"/><path d="M238.61,102.51l-59.67,6.64c-3.83-21.14-18.75-38.41-38.52-45.59l16.49-57.75h0c1.43.46,2.85.95,4.25,1.47.46.17.92.34,1.37.52.48.18.95.36,1.42.54.38.15.75.29,1.11.45.42.17.86.35,1.28.53.12.05.23.1.35.15.42.18.84.36,1.25.54.44.19.89.39,1.34.59.44.19.88.4,1.32.61.44.2.88.41,1.32.63.88.41,1.74.85,2.6,1.29.87.44,1.72.89,2.57,1.35.42.23.85.47,1.27.7.42.24.84.48,1.26.72,1.57.9,3.11,1.84,4.64,2.81.51.32,1,.65,1.51.98.8.53,1.6,1.07,2.4,1.62.4.28.78.55,1.18.83.39.28.78.56,1.17.84l1.16.86c.67.51,1.34,1.01,2,1.53,1.99,1.56,3.93,3.18,5.81,4.85.72.63,1.43,1.27,2.13,1.94.35.32.7.65,1.05.99.69.65,1.37,1.33,2.05,2.01.34.34.67.68,1.01,1.02.66.68,1.33,1.37,1.98,2.08.33.35.65.7.98,1.06,1.7,1.87,3.34,3.79,4.92,5.77.22.28.43.55.65.83.29.38.59.76.88,1.13s.58.76.87,1.15c.29.39.58.77.86,1.16.29.4.58.79.87,1.2.25.34.49.68.72,1.02.05.06.09.13.14.19.04.06.07.1.1.16.23.31.44.65.66.97.27.4.53.8.8,1.2.27.41.53.81.78,1.22.62.95,1.21,1.91,1.8,2.87.65,1.1,1.3,2.21,1.93,3.33.24.42.47.85.7,1.27.46.85.91,1.7,1.35,2.57.22.43.44.86.65,1.3.43.87.86,1.74,1.26,2.62.41.88.8,1.75,1.2,2.63,0,0,0,.02,0,.03.39.89.76,1.79,1.13,2.69.37.9.73,1.82,1.08,2.73.26.68.51,1.37.76,2.05.25.7.49,1.39.73,2.09.16.46.31.93.46,1.39.3.94.6,1.87.88,2.82.15.47.29.94.41,1.42.27.95.53,1.9.77,2.86.25.96.48,1.93.71,2.89.1.45.2.91.3,1.37.17.78.33,1.57.49,2.36.13.64.25,1.27.37,1.91.03.16.06.3.08.46,0,.08.03.16.04.24.15.82.28,1.65.41,2.48.05.28.08.55.12.84Z" fill="#279200" stroke-width="0"/><path d="M148.84,3.51l-16.5,57.75c-4-.85-8.15-1.29-12.4-1.29-25.06,0-46.53,15.38-55.5,37.21L7.42,78.33c.15-.4.29-.78.44-1.18.15-.4.3-.79.46-1.19.14-.36.29-.72.43-1.08.07-.19.16-.39.24-.58.14-.35.29-.7.43-1.05.21-.5.42-.99.64-1.47.18-.41.35-.8.53-1.2.4-.89.81-1.77,1.23-2.64.2-.43.41-.87.64-1.3.37-.75.76-1.49,1.14-2.23.08-.16.17-.32.25-.48.38-.71.76-1.42,1.15-2.12.27-.49.53-.97.81-1.45.37-.64.74-1.27,1.11-1.91.1-.17.2-.33.3-.5.28-.47.55-.92.85-1.38,0,0,0-.03.02-.04.14-.21.27-.43.41-.65.33-.53.66-1.06,1.01-1.58.42-.66.86-1.31,1.3-1.95,0,0,.02-.02.02-.03.06-.09.13-.18.19-.28.35-.52.71-1.02,1.07-1.53.02-.04.05-.07.07-.11.04-.05.06-.09.1-.14.51-.71,1.02-1.41,1.54-2.1.29-.39.57-.77.87-1.15.37-.49.75-.97,1.13-1.45.38-.48.76-.96,1.15-1.44.39-.47.77-.94,1.17-1.41.28-.33.55-.65.83-.98.35-.41.7-.81,1.06-1.22.86-.96,1.72-1.92,2.61-2.85.44-.48.89-.96,1.35-1.43.1-.11.21-.21.31-.32.11-.11.22-.22.32-.32l.49-.49c.71-.71,1.42-1.4,2.15-2.09.12-.12.25-.24.38-.36.72-.67,1.44-1.35,2.17-2,.53-.48,1.08-.96,1.62-1.43.18-.17.36-.31.54-.47s.37-.31.55-.47c.73-.62,1.47-1.23,2.22-1.83.37-.3.75-.6,1.12-.89.69-.55,1.39-1.09,2.1-1.61.51-.38,1.01-.76,1.52-1.12.51-.38,1.02-.74,1.54-1.11.58-.41,1.17-.82,1.76-1.22.45-.3.9-.61,1.36-.91.06-.05.13-.08.2-.13.3-.19.61-.4.92-.59.41-.26.81-.52,1.23-.77.41-.26.81-.51,1.23-.76.41-.26.82-.5,1.24-.75.39-.23.77-.46,1.17-.68.31-.18.63-.36.94-.53.08-.06.17-.1.25-.15.18-.09.35-.19.53-.29.63-.35,1.25-.69,1.89-1.02.11-.07.23-.13.35-.19.06-.03.12-.06.18-.09.32-.18.66-.34,1-.52.61-.31,1.23-.62,1.85-.94.07-.03.14-.06.21-.1,0,0,.02,0,.04,0,.68-.33,1.37-.66,2.06-.99.77-.36,1.57-.72,2.36-1.06.06-.03.1-.06.16-.07.06-.03.11-.05.17-.07.52-.22,1.04-.44,1.57-.66.1-.05.21-.09.31-.13.44-.19.89-.38,1.35-.55.65-.27,1.3-.52,1.96-.76.45-.18.91-.35,1.37-.52l1.38-.5c.46-.17.92-.32,1.39-.48.38-.13.76-.26,1.14-.38,1.28-.42,2.58-.82,3.88-1.2.69-.2,1.38-.4,2.08-.58.06-.02.11-.03.17-.05.53-.15,1.06-.29,1.58-.41.02,0,.03,0,.05,0,.34-.09.69-.18,1.03-.26.17-.05.33-.08.5-.12.5-.12,1-.24,1.49-.35.77-.18,1.56-.34,2.34-.51,1.7-.35,3.41-.66,5.13-.93.46-.07.91-.15,1.37-.21.11-.02.22-.03.33-.05.29-.04.56-.08.84-.12,0,0,0,0,0,0,1.2-.21,2.41-.33,3.62-.45.7-.07,1.43-.15,2.15-.2.48-.05.96-.08,1.44-.12.77-.06,1.55-.11,2.33-.16.78-.05,1.58-.08,2.36-.11.71-.03,1.42-.06,2.14-.06.82-.02,1.65-.03,2.48-.03.76,0,1.53,0,2.29.02.49,0,.98.03,1.47.05.29,0,.58,0,.88.03.1,0,.19,0,.29,0,.37,0,.74.03,1.11.05.2.02.4.03.6.04.57.03,1.13.06,1.7.1.12,0,.24.02.36.03.06,0,.1,0,.16,0,.39.03.78.06,1.17.09.09,0,.18.02.28.03.29.02.56.05.84.07.02,0,.05,0,.06,0,.49.04.98.08,1.47.14.43.05.87.09,1.29.15.44.05.88.1,1.32.16.52.06,1.02.13,1.53.2.65.09,1.3.18,1.95.29.72.11,1.43.23,2.14.36.61.1,1.21.21,1.81.33.07.02.16.03.23.05.67.13,1.35.26,2.01.41,1.34.28,2.65.58,3.96.91Z" fill="#a24aeb" stroke-width="0"/><path d="M202.94,206.5c-.36.36-.73.71-1.1,1.05-.07.06-.14.12-.2.18-.51.48-1.02.95-1.55,1.42-.19.18-.39.34-.58.52-1.31,1.16-2.64,2.29-3.99,3.38-.68.55-1.36,1.1-2.05,1.63-.35.27-.69.53-1.04.8-.34.27-.69.53-1.04.78-.42.31-.85.64-1.27.94,0,0-.02,0-.03.02-.04.03-.06.05-.1.07-.03.02-.06.05-.09.06-.61.43-1.22.87-1.83,1.29-1.64,1.13-3.31,2.23-5.01,3.28-.62.39-1.23.76-1.86,1.13-.1.06-.2.12-.3.18-.2.13-.41.25-.63.38-.62.36-1.24.72-1.88,1.07-.84.47-1.7.93-2.55,1.38-.32.18-.64.34-.96.5-.02.02-.05.03-.06.04-1.37.71-2.76,1.4-4.18,2.05-.41.19-.82.38-1.23.56-.03.02-.06.04-.09.05-.62.29-1.24.56-1.87.83-.52.22-1.03.44-1.55.65-.37.16-.75.31-1.12.46-.55.23-1.11.45-1.69.66-.39.15-.77.29-1.17.44-1.39.53-2.8,1.02-4.23,1.49-.45.15-.89.29-1.34.43-.31.1-.64.19-.95.29-.4.13-.79.25-1.19.36-.47.15-.94.29-1.42.41-.47.14-.95.27-1.43.4-.49.14-.98.27-1.47.39-.47.12-.93.24-1.4.35-.31.08-.64.16-.96.23-.43.11-.88.2-1.31.3-.56.13-1.12.25-1.69.37-.49.09-.98.19-1.47.29-.5.1-1,.19-1.49.29-.41.07-.82.15-1.23.22-.59.1-1.19.2-1.79.29-.37.06-.74.12-1.11.17-.37.06-.73.11-1.1.16-.78.11-1.58.21-2.37.3-.51.06-1.02.12-1.54.17-.23.03-.46.05-.69.07-.86.08-1.7.16-2.57.22-.38.03-.76.06-1.14.08-.38.02-.76.05-1.14.06-.74.05-1.47.08-2.22.11h-.08c-.68.03-1.36.05-2.05.06-.86.02-1.72.03-2.59.03C53.7,239.87,0,186.18,0,119.93c0-.82,0-1.65.03-2.47,0-.72.04-1.45.06-2.17,0-.22,0-.45.03-.67.03-.68.06-1.37.1-2.05.05-.76.1-1.53.17-2.29.03-.37.06-.73.09-1.09.08-1.01.18-2.02.3-3.02,0-.06,0-.1.02-.15.05-.46.1-.91.17-1.36.12-1,.27-1.99.41-2.99s.31-1.98.49-2.97c.09-.49.18-.99.28-1.47.09-.49.19-.98.29-1.47.1-.49.2-.98.31-1.47.1-.48.21-.97.32-1.45.11-.46.22-.93.33-1.39.12-.46.23-.92.35-1.38.25-1,.52-1.99.8-2.98.07-.27.15-.53.23-.8l57.03,18.85c-1.21,4.73-1.84,9.68-1.84,14.78,0,33.13,26.85,59.97,59.97,59.97,15.36,0,29.36-5.77,39.96-15.26l43.04,41.86Z" fill="#f46d00" stroke-width="0"/></g></svg>