<?xml version="1.0" encoding="UTF-8"?><svg id="a" xmlns="http://www.w3.org/2000/svg" width="47.04mm" height="211.67mm" viewBox="0 0 133.33 600"><path d="M100,66.67c0-18.41-14.92-33.33-33.33-33.33s-33.33,14.92-33.33,33.33,14.92,33.33,33.33,33.33,33.33-14.92,33.33-33.33Z" style="fill:none; stroke:#000; stroke-linecap:round; stroke-linejoin:round; stroke-width:66.67px;"/><path d="M100,300c0-18.41-14.92-33.33-33.33-33.33s-33.33,14.92-33.33,33.33,14.92,33.33,33.33,33.33,33.33-14.92,33.33-33.33Z" style="fill:none; stroke:#000; stroke-linecap:round; stroke-linejoin:round; stroke-width:66.67px;"/><path d="M100,533.33c0-18.41-14.92-33.33-33.33-33.33s-33.33,14.92-33.33,33.33,14.92,33.33,33.33,33.33,33.33-14.92,33.33-33.33Z" style="fill:none; stroke:#000; stroke-linecap:round; stroke-linejoin:round; stroke-width:66.67px;"/></svg>