<?xml version="1.0" encoding="UTF-8"?><svg id="a" xmlns="http://www.w3.org/2000/svg" width="666.67" height="666.67" viewBox="0 0 666.67 666.67"><path d="M175,12.93C218.29,3.31,270.81,0,333.33,0s115.04,3.31,158.33,12.93c43.67,9.71,79.96,26.27,107.88,54.19,27.92,27.92,44.49,64.21,54.19,107.88,9.62,43.29,12.93,95.81,12.93,158.33s-3.31,115.04-12.93,158.33c-9.71,43.67-26.27,79.96-54.19,107.88-27.92,27.92-64.21,44.49-107.88,54.19-43.29,9.62-95.81,12.93-158.33,12.93s-115.04-3.31-158.33-12.93c-43.67-9.71-79.96-26.27-107.88-54.19-27.92-27.92-44.49-64.21-54.19-107.88C3.31,448.37,0,395.86,0,333.33s3.31-115.04,12.93-158.33c9.71-43.67,26.27-79.96,54.19-107.88,27.92-27.92,64.21-44.49,107.88-54.19ZM333.33,133.33c-73.64,0-133.33,59.7-133.33,133.33s59.7,133.33,133.33,133.33,133.33-59.7,133.33-133.33-59.7-133.33-133.33-133.33ZM545.92,509.81c11.76,19.18,7.6,44.53-11.35,56.64-17.23,11.02-37.37,17.77-57.37,22.21-36.12,8.03-82.87,11.34-143.87,11.34s-107.75-3.31-143.87-11.34c-19.62-4.36-39.39-10.93-56.42-21.59-19.29-12.08-23.54-37.78-11.49-57.1,13.88-22.24,33-39.72,58.74-52.16,39.05-18.87,90.23-24.48,153.03-24.48s113.71,5.16,152.7,23.49c26.4,12.41,45.88,30.14,59.89,52.98Z" style="fill:#323232; fill-rule:evenodd; stroke-width:0px;"/></svg>