<?xml version="1.0" encoding="UTF-8"?><svg id="a" xmlns="http://www.w3.org/2000/svg" width="665.01" height="665.02" viewBox="0 0 665.01 665.02"><path d="M243.57,59.29c32.94-79.05,144.93-79.05,177.87,0,6.43,15.43,24.6,22.57,39.99,15.47,81.82-37.76,166.59,47.01,128.83,128.83-7.1,15.39.03,33.56,15.46,39.99,79.06,32.94,79.06,144.94,0,177.87-15.43,6.43-22.56,24.6-15.46,39.99,37.76,81.82-47.01,166.59-128.83,128.83-15.39-7.1-33.56.04-39.99,15.47-32.94,79.05-144.93,79.05-177.87,0-6.43-15.43-24.6-22.57-39.99-15.47-81.82,37.76-166.59-47.01-128.83-128.83,7.1-15.38-.03-33.56-15.46-39.99-79.05-32.94-79.05-144.93,0-177.87,15.43-6.43,22.57-24.6,15.46-39.99C36.99,121.77,121.76,37,203.58,74.76c15.39,7.1,33.56-.03,39.99-15.47h0ZM199.17,332.51c0-73.64,59.7-133.33,133.33-133.33s133.33,59.7,133.33,133.33-59.7,133.33-133.33,133.33-133.33-59.7-133.33-133.33h0Z" style="fill:#323232; fill-rule:evenodd; stroke-width:0px;"/><path d="M332.5,265.84c-36.82,0-66.67,29.85-66.67,66.67s29.85,66.67,66.67,66.67,66.67-29.85,66.67-66.67-29.85-66.67-66.67-66.67h0Z" style="fill:#323232; fill-rule:evenodd; stroke-width:0px;"/></svg>