<?xml version="1.0" encoding="UTF-8"?><svg id="Layer_1" xmlns="http://www.w3.org/2000/svg" width="233.57mm" height="232.81mm" viewBox="0 0 662.07 659.94"><path d="M297.89,21.92c12.18-29.22,53.57-29.22,65.75,0l64.14,153.93c5.17,12.42,17.31,20.51,30.77,20.51h168.66c31.01,0,46.54,37.49,24.61,59.42l-136.41,136.41c-8.56,8.56-11.8,21.09-8.48,32.73l54.1,189.34c9.13,31.97-26.51,57.99-54.18,39.55l-157.59-105.06c-11.2-7.46-25.78-7.46-36.98,0l-157.33,104.88c-27.75,18.5-63.52-7.61-54.35-39.68l54.01-189.04c3.33-11.64.08-24.17-8.48-32.73L10.38,256.45c-22.18-22.18-6.47-60.1,24.89-60.1h167.71c13.46,0,25.59-8.09,30.77-20.51L297.89,21.92Z" fill-rule="evenodd"/></svg>