<?xml version="1.0" encoding="UTF-8"?><svg id="a" xmlns="http://www.w3.org/2000/svg" width="666.67" height="652.84" viewBox="0 0 666.67 652.84"><path d="M166.67,266.67c0-18.41,14.92-33.33,33.33-33.33h.33c18.41,0,33.33,14.92,33.33,33.33s-14.92,33.33-33.33,33.33h-.33c-18.41,0-33.33-14.92-33.33-33.33ZM300,266.67c0-18.41,14.92-33.33,33.33-33.33h.33c18.41,0,33.33,14.92,33.33,33.33s-14.92,33.33-33.33,33.33h-.33c-18.41,0-33.33-14.92-33.33-33.33ZM466.67,233.33c-18.41,0-33.33,14.92-33.33,33.33s14.92,33.33,33.33,33.33h.33c18.41,0,33.33-14.92,33.33-33.33s-14.92-33.33-33.33-33.33h-.33ZM164.47,0h337.72c29.55,0,55.01,0,75.4,2.74,21.85,2.94,42.8,9.56,59.78,26.55,16.99,16.99,23.61,37.93,26.55,59.78,2.74,20.39,2.74,45.85,2.74,75.4v204.39c0,29.55,0,55.01-2.74,75.4-2.94,21.85-9.56,42.8-26.55,59.78-16.99,16.99-37.93,23.61-59.78,26.55-20.39,2.74-45.85,2.74-75.4,2.74h-102.19c-3.79,0-7.48,1.2-10.54,3.43l-146.94,106.86c-31.57,22.96-75.86.41-75.86-38.63v-71.66c-25.8,0-51.96.71-77.59-2.74-21.85-2.94-42.8-9.56-59.78-26.55-16.99-16.99-23.61-37.93-26.55-59.78C0,423.87,0,398.41,0,368.86v-204.39c0-29.55,0-55.01,2.74-75.4,2.94-21.85,9.56-42.8,26.55-59.78C46.28,12.3,67.22,5.68,89.07,2.74,109.46,0,134.92,0,164.47,0Z" style="fill:#323232; fill-rule:evenodd; stroke-width:0px;"/></svg>