<?xml version="1.0" encoding="UTF-8"?><svg id="a" xmlns="http://www.w3.org/2000/svg" width="690.08" height="800" viewBox="0 0 690.08 800"><path d="M684.47,442.55L376.65,16.16c-7.33-10.13-19.09-16.16-31.61-16.16s-24.28,6.02-31.6,16.16L5.63,442.56c-7.77,12.02-7.47,27.53.78,39.22s22.73,17.22,36.66,13.97l150.73-35.2v288.77c-.02,27.96,22.68,50.66,50.67,50.66l201.16.03c28.01-.03,50.69-22.73,50.69-50.7v-288.78l150.71,35.23c13.92,3.26,28.43-2.27,36.66-13.97,8.23-11.7,8.55-27.22.79-39.23Z" style="fill:#000; stroke-width:0px;"/></svg>